<svg width="512" height="512" xmlns="http://www.w3.org/2000/svg">

 <g>
  <title>Layer 1</title>
  <path id="svg_4" fill="#fdd4bb" d="m328.658,137.141c-18.419,8.631 -41.645,13.082 -65.623,13.082c-20.076,0 -44.078,-4.16 -64.718,-15.395c-3.753,9.922 -10.216,22.911 -20.37,31.378l0,51.211c0,46.993 38.095,85.089 85.089,85.089c46.993,0 85.089,-38.095 85.089,-85.089l0,-51.211c-9.384,-7.824 -15.613,-19.507 -19.467,-29.065z"/>
  <path id="svg_5" fill="#f7c4a8" d="m263.035,284.505c-46.993,0 -85.089,-38.095 -85.089,-85.089l0,18c0,46.993 38.095,85.089 85.089,85.089c46.993,0 85.089,-38.095 85.089,-85.089l0,-18c0,46.994 -38.096,85.089 -85.089,85.089z"/>
  <path id="svg_6" fill="#ffdd91" d="m313.679,504s-18.133,-91.2 -18.133,-139.733s11.938,-74.284 11.938,-74.284l-44.449,59.707l-44.449,-59.707s11.938,25.751 11.938,74.284s-18.134,139.733 -18.134,139.733l101.289,0z"/>
  <path id="svg_7" fill="#ebbaa1" d="m348.124,166.205c3.784,-1.859 8.038,-2.906 12.538,-2.906c15.727,0 28.476,12.749 28.476,28.476s-12.749,28.476 -28.476,28.476c-4.5,0 -8.754,-1.048 -12.538,-2.906l0,-51.14z"/>
  <path id="svg_8" fill="#ebbaa1" d="m177.946,166.205c-3.784,-1.859 -8.038,-2.906 -12.538,-2.906c-15.727,0 -28.476,12.749 -28.476,28.476s12.749,28.476 28.476,28.476c4.5,0 8.754,-1.048 12.538,-2.906l0,-51.14z"/>
  <path id="svg_9" fill="#e8a990" d="m360.661,202.251c-4.5,0 -8.754,-1.048 -12.538,-2.906l0,18c3.784,1.859 8.038,2.906 12.538,2.906c15.727,0 28.476,-12.749 28.476,-28.476c0,-3.146 -0.518,-6.17 -1.46,-9c-3.768,11.314 -14.435,19.476 -27.016,19.476z"/>
  <path id="svg_10" fill="#e8a990" d="m138.393,182.775c-0.942,2.83 -1.46,5.854 -1.46,9c0,15.727 12.749,28.476 28.476,28.476c4.5,0 8.754,-1.048 12.538,-2.906l0,-18c-3.784,1.859 -8.038,2.906 -12.538,2.906c-12.581,0 -23.248,-8.162 -27.016,-19.476z"/>
  <path id="svg_11" fill="#af665a" d="m263.035,150.222c-45.844,0 -112.166,-21.689 -112.166,-99.801c0,0 18.475,8.347 29.421,9.274c0,0 -5.546,-31.073 8.812,-48.495c0,0 8.533,9.956 36.24,11.022c20.002,0.77 48.738,3.911 57.983,19.911c0,0 -2.845,-21.333 10.667,-34.133c0,0 12.42,13.146 28.8,24.178c17.422,11.733 56.778,32.951 40.889,71.822c-12.355,30.222 -55.157,46.222 -100.646,46.222z"/>
  <path id="svg_12" fill="#e5907b" d="m366.419,77.928c1.755,7.664 1.251,16.311 -2.739,26.072c-5.842,14.292 -18.498,25.398 -35.022,33.141c3.854,9.559 10.084,21.242 19.466,29.065c3.784,-1.859 8.038,-2.906 12.538,-2.906c8.36,0 15.878,3.603 21.088,9.34c-0.001,-0.001 20.853,-52.535 -15.331,-94.712z"/>
  <path id="svg_13" fill="#e5907b" d="m155.451,83.209c-30.293,41.151 -11.13,89.43 -11.13,89.43c5.209,-5.737 12.728,-9.34 21.088,-9.34c4.5,0 8.754,1.048 12.538,2.906c10.155,-8.467 16.618,-21.456 20.37,-31.378c-19.084,-10.388 -35.292,-26.826 -42.866,-51.618z"/>
  <path id="svg_14" fill="#ebbaa1" d="m263.035,302.505c-16.292,0 -31.513,-4.582 -44.449,-12.523l44.449,59.707l44.449,-59.707c-12.937,7.941 -28.157,12.523 -44.449,12.523z"/>
  <path id="svg_15" fill="#f95750" d="m218.586,289.982s-38.195,-23.316 -64.329,-17.982l14.073,53.333c-32.32,17.41 -52.473,51.158 -52.473,87.868l0,90.799l96.533,0s18.133,-91.2 18.133,-139.733c0.001,-48.534 -11.937,-74.285 -11.937,-74.285z"/>
  <path id="svg_16" fill="#f95750" d="m307.484,289.982s38.195,-23.316 64.329,-17.982l-14.073,53.333c32.32,17.41 52.473,51.158 52.473,87.868l0,90.799l-96.533,0s-18.133,-91.2 -18.133,-139.733c-0.001,-48.534 11.937,-74.285 11.937,-74.285z"/>
  <path id="svg_17" fill="#e84642" d="m115.857,486.038l0,17.962l96.533,0s1.377,-6.926 3.37,-17.962l-99.903,0z"/>
  <path id="svg_18" fill="#e84642" d="m310.31,486.038c1.993,11.037 3.37,17.962 3.37,17.962l96.533,0l0,-17.962l-99.903,0z"/>
  <path id="svg_19" fill="#f9cd80" d="m215.76,486.038c-1.993,11.037 -3.37,17.962 -3.37,17.962l101.289,0s-1.377,-6.926 -3.37,-17.962l-94.549,0z"/>
  <path id="svg_21" fill="#000000" d="m300.779,207.879c4.151,0 7.515,-3.365 7.515,-7.515l0,-13.809c0,-4.15 -3.364,-7.515 -7.515,-7.515s-7.515,3.365 -7.515,7.515l0,13.809c0,4.151 3.364,7.515 7.515,7.515z"/>
  <path id="svg_22" fill="#000000" d="m225.242,179.041c-4.15,0 -7.515,3.365 -7.515,7.515l0,13.809c0,4.15 3.365,7.515 7.515,7.515s7.515,-3.365 7.515,-7.515l0,-13.809c0,-4.15 -3.365,-7.515 -7.515,-7.515z"/>
  <path id="svg_23" fill="#000000" d="m292.026,244.926c1.579,-3.838 -0.25,-8.23 -4.088,-9.81c-3.84,-1.58 -8.23,0.25 -9.81,4.088c-0.028,0.071 -3.243,7.069 -15.117,7.069s-15.089,-6.999 -15.117,-7.069c-1.58,-3.838 -5.971,-5.667 -9.811,-4.088c-3.838,1.58 -5.667,5.972 -4.088,9.81c0.276,0.669 6.996,16.377 29.016,16.377c22.019,0 28.739,-15.708 29.015,-16.377z"/>
  <path id="svg_26" fill="#000000" d="m366.638,321.818l12.633,-47.877c1.157,-4.035 -1.635,-8.528 -5.763,-9.281c-10.153,-2.072 -21.636,-0.444 -32.318,2.573c7.55,-11.787 12.505,-25.385 14.064,-39.985c1.831,0.284 3.69,0.438 5.578,0.438c19.876,0 36.047,-16.171 36.047,-36.048c0,-7.651 -2.403,-14.747 -6.485,-20.59c4.329,-13.812 14.765,-58.688 -16.936,-96.995c-2.981,-10.822 -10.042,-21.068 -21.181,-30.655c-3.144,-2.707 -7.889,-2.354 -10.598,0.793c-2.708,3.145 -2.352,7.89 0.793,10.598c16.781,14.445 21.366,29.08 14.427,46.056c-5.107,12.493 -16.866,23.027 -34.006,30.462c-16.622,7.21 -37.889,11.18 -59.883,11.18c-25.909,0 -51.128,-7.052 -69.192,-19.347c-20.826,-14.175 -32.622,-34.922 -35.161,-61.77c6.454,2.371 14.492,4.878 20.809,5.413c4.758,0.528 8.982,-4.111 8.034,-8.797c-0.013,-0.072 -1.266,-7.353 -0.859,-16.435c0.266,-5.933 1.297,-13.608 4.401,-20.17c6.357,3.44 17.06,7.228 33.91,7.876c28.856,1.111 46.311,6.561 51.88,16.201c1.79,3.096 5.512,4.487 8.901,3.348c3.391,-1.14 5.505,-4.526 5.059,-8.074c-0.018,-0.146 -1.437,-12.189 3.969,-21.988c5.403,5.055 13.924,12.475 23.926,19.211c3.441,2.319 8.113,1.408 10.431,-2.035c2.318,-3.442 1.407,-8.112 -2.035,-10.431c-15.475,-10.423 -27.475,-23.03 -27.592,-23.153c-2.72,-2.99 -7.748,-3.138 -10.632,-0.295c-7.269,6.887 -10.648,15.606 -12.155,23.205c-14.42,-8.437 -35.063,-10.388 -51.173,-11.009c-22.05,-0.848 -30.099,-7.714 -30.967,-8.518c-2.778,-3.712 -8.695,-3.491 -11.433,0.204c-10.821,13.131 -12.014,32.118 -11.5,43.929c-7.032,-2.08 -14.643,-5.223 -17.917,-6.7c-4.757,-2.317 -10.762,1.561 -10.607,6.849c0,11.185 1.333,21.678 3.938,31.403c-24.841,36.561 -15.46,76.714 -11.415,89.64c-4.082,5.842 -6.486,12.939 -6.486,20.591c0,19.877 16.171,36.048 36.047,36.048c1.888,0 3.747,-0.154 5.579,-0.439c1.559,14.599 6.514,28.198 14.063,39.984c-10.683,-3.017 -22.166,-4.645 -32.319,-2.572c-4.129,0.752 -6.919,5.246 -5.763,9.281l12.633,47.877c-8.668,5.305 -16.508,11.787 -23.366,19.325c-2.793,3.07 -2.568,7.823 0.502,10.616s7.822,2.568 10.616,-0.502c7.049,-7.749 15.308,-14.202 24.546,-19.178c3.057,-1.647 4.588,-5.175 3.702,-8.534l-11.818,-44.788c8.172,0.21 18.187,2.628 29.48,7.156c8.815,3.535 16.109,7.457 19.488,9.367c4.031,10.205 10.387,34.971 10.387,69.193c0,40.194 -12.872,111.394 -16.861,132.496l-20.791,0l0,-56.078c0,-4.15 -3.365,-7.515 -7.515,-7.515s-7.515,3.365 -7.515,7.515l0,56.078l-47.183,0l0,-83.464c0,-13.607 2.913,-26.754 8.66,-39.078c1.754,-3.761 0.127,-8.233 -3.635,-9.987c-3.758,-1.753 -8.233,-0.127 -9.987,3.635c-6.681,14.327 -10.068,29.612 -10.068,45.43l0,90.979c0,4.15 3.365,7.515 7.515,7.515l294.941,0c4.151,0 7.515,-3.365 7.515,-7.515l0,-90.979c-0.001,-37.603 -19.534,-72.207 -51.359,-91.683zm-5.807,-109.161c-1.725,0 -3.41,-0.21 -5.047,-0.614l-0.001,-40.806c1.637,-0.404 3.323,-0.615 5.048,-0.615c11.589,0 21.017,9.428 21.017,21.017c0,11.59 -9.428,21.018 -21.017,21.018zm9.981,-106.124c0.776,-1.898 1.435,-3.782 2,-5.654c5.486,11.766 8.037,24.873 7.572,39.195c-0.253,7.805 -1.398,14.642 -2.571,19.78c-5.064,-2.716 -10.845,-4.262 -16.982,-4.262c-3.749,0 -7.393,0.576 -10.897,1.691c-4.876,-5.031 -8.667,-11.27 -11.45,-16.996c15.432,-8.614 26.755,-20.121 32.328,-33.754zm-226.639,85.106c0,-11.589 9.428,-21.017 21.017,-21.017c1.725,0 3.411,0.21 5.048,0.615l0,40.806c-1.637,0.404 -3.323,0.615 -5.048,0.615c-11.589,-0.001 -21.017,-9.429 -21.017,-21.019zm31.933,-34.349c-3.509,-1.119 -7.161,-1.698 -10.916,-1.698c-6.138,0 -11.921,1.546 -16.986,4.264c-2.952,-12.974 -5.714,-36.898 5.633,-60.256c7.109,14.422 17.682,26.545 31.524,35.967c1.096,0.746 2.225,1.466 3.364,2.178c-2.944,6.556 -7.087,13.843 -12.619,19.545zm9.162,60.042l0,-47.955c7.502,-7.161 12.941,-16.308 16.722,-24.493l-0.038,-0.064c17.987,8.174 39.366,12.699 61.059,12.699c23.207,0 44.382,-3.865 61.908,-10.822l-0.028,0.032c4.48,9.289 9.794,16.878 15.862,22.652l0,47.951c0,42.868 -34.876,77.743 -77.743,77.743s-77.742,-34.876 -77.742,-77.743zm99.988,90.07l-22.245,29.88l-22.245,-29.88c7.13,1.761 14.579,2.702 22.245,2.702c7.666,0.001 15.115,-0.94 22.245,-2.702zm117.71,189.568l-47.182,0l0,-56.078c0,-4.15 -3.364,-7.515 -7.515,-7.515s-7.515,3.365 -7.515,7.515l0,56.078l-20.793,0c-1.612,-8.506 -4.668,-25.144 -7.72,-44.491c-0.647,-4.099 -4.477,-6.901 -8.594,-6.252c-4.099,0.646 -6.898,4.494 -6.252,8.594c2.773,17.581 5.553,32.965 7.271,42.15l-83.305,0c4.584,-24.398 16.588,-92.147 16.588,-132.496c0,-15.358 -1.16,-28.518 -2.777,-39.415l21.81,29.296c1.418,1.905 3.653,3.027 6.027,3.027c2.375,0 4.61,-1.122 6.028,-3.027l21.81,-29.296c-1.617,10.897 -2.777,24.058 -2.777,39.415c0,14.977 1.674,35.309 4.976,60.434c0.498,3.783 3.727,6.537 7.442,6.537c0.327,0 0.657,-0.022 0.989,-0.065c4.115,-0.541 7.012,-4.315 6.472,-8.43c-3.217,-24.478 -4.848,-44.152 -4.848,-58.476c0,-38.608 7.837,-62.392 10.436,-69.219c3.393,-1.917 10.649,-5.816 19.438,-9.34c11.293,-4.529 21.307,-6.947 29.479,-7.156l-11.817,44.788c-0.886,3.358 0.645,6.886 3.703,8.534c29.993,16.157 48.626,47.358 48.626,81.427l0,83.461z"/>
 </g>
</svg>